<?xml version="1.0" encoding="iso-8859-1"?>
<!-- Generator: Adobe Illustrator 19.0.0, SVG Export Plug-In . SVG Version: 6.00 Build 0)  -->
<svg version="1.1" id="Layer_1" xmlns="http://www.w3.org/2000/svg" xmlns:xlink="http://www.w3.org/1999/xlink" x="0px" y="0px"
	 viewBox="0 0 512 512" style="enable-background:new 0 0 512 512;" xml:space="preserve">
<g>
	<g>
		<path d="M511.623,223.624L477.49,112.69c-1.102-3.58-4.41-6.024-8.156-6.024H302.201L202.3,6.765
			c-3.329-3.331-8.738-3.331-12.067,0l-99.901,99.901H42.667c-3.746,0-7.054,2.444-8.156,6.024L0.377,223.624
			c-0.796,2.589-0.317,5.401,1.292,7.579c1.608,2.178,4.156,3.464,6.864,3.464h25.6V499.2c0,4.713,3.821,8.533,8.533,8.533h51.2
			H153.6h85.333h59.733h170.667c4.713,0,8.533-3.821,8.533-8.533V234.666h25.6c2.708,0,5.256-1.285,6.865-3.463
			C511.94,229.025,512.419,226.212,511.623,223.624z M85.333,490.666H51.2v-256h34.133V490.666z M85.333,217.6H42.667H20.087
			l28.881-93.867h36.365V217.6z M230.4,490.666h-68.267V354.133H230.4V490.666z M290.133,226.133v264.533h-42.667V345.6
			c0-4.713-3.821-8.533-8.533-8.533H153.6c-4.713,0-8.533,3.821-8.533,8.533v145.067H102.4V226.133V118.734l93.867-93.867
			l93.867,93.867V226.133z M460.8,490.666H307.2v-256h153.6V490.666z M469.333,217.6H307.2v-93.867h155.831l28.881,93.867H469.333z"
			/>
	</g>
</g>
<g>
	<g>
		<path d="M443.733,277.333h-42.667c-4.713,0-8.533,3.821-8.533,8.533v145.067c0,4.712,3.821,8.533,8.533,8.533h42.667
			c4.713,0,8.533-3.821,8.533-8.533V285.866C452.267,281.154,448.446,277.333,443.733,277.333z M435.2,422.4h-25.6v-128h25.6V422.4z
			"/>
	</g>
</g>
<g>
	<g>
		<path d="M366.933,277.333h-42.667c-4.713,0-8.533,3.821-8.533,8.533v145.067c0,4.712,3.821,8.533,8.533,8.533h42.667
			c4.713,0,8.533-3.821,8.533-8.533V285.866C375.467,281.154,371.646,277.333,366.933,277.333z M358.4,422.4h-25.6v-128h25.6V422.4z
			"/>
	</g>
</g>
<g>
	<g>
		<path d="M238.933,115.2H153.6c-4.713,0-8.533,3.821-8.533,8.533V217.6c0,4.712,3.821,8.533,8.533,8.533h85.333
			c4.713,0,8.533-3.821,8.533-8.533v-93.867C247.467,119.021,243.646,115.2,238.933,115.2z M230.4,209.066h-68.267v-76.8H230.4
			V209.066z"/>
	</g>
</g>
<g>
</g>
<g>
</g>
<g>
</g>
<g>
</g>
<g>
</g>
<g>
</g>
<g>
</g>
<g>
</g>
<g>
</g>
<g>
</g>
<g>
</g>
<g>
</g>
<g>
</g>
<g>
</g>
<g>
</g>
</svg>
